<svg xmlns="http://www.w3.org/2000/svg" xmlns:xlink="http://www.w3.org/1999/xlink" width="500" zoomAndPan="magnify" viewBox="0 0 375 374.999991" height="500" preserveAspectRatio="xMidYMid meet" version="1.0"><defs><clipPath id="19bc59fd02"><path d="M 12.585938 9 L 347 9 L 347 371.277344 L 12.585938 371.277344 Z M 12.585938 9 " clip-rule="nonzero"/></clipPath></defs><path fill="#8c52ff" d="M 240.109375 143.371094 C 246.574219 149.777344 256.996094 149.722656 263.394531 143.265625 C 269.796875 136.808594 269.742188 126.386719 263.285156 119.984375 C 224.648438 81.699219 162.074219 81.980469 123.789062 120.621094 C 85.507812 159.261719 85.792969 221.832031 124.425781 260.117188 C 143.75 279.257812 169.046875 288.757812 194.3125 288.644531 C 219.570312 288.53125 244.789062 278.796875 263.929688 259.480469 C 270.332031 253.023438 270.28125 242.601562 263.824219 236.199219 C 257.367188 229.800781 246.945312 229.847656 240.542969 236.304688 C 215.035156 262.039062 173.34375 262.226562 147.609375 236.726562 C 121.875 211.222656 121.679688 169.53125 147.1875 143.789062 C 172.6875 118.0625 214.367188 117.863281 240.109375 143.371094 Z M 240.109375 143.371094 " fill-opacity="1" fill-rule="nonzero"/><g clip-path="url(#19bc59fd02)"><path fill="#8c52ff" d="M 346.339844 259.199219 C 346.242188 237.210938 337.585938 216.578125 321.96875 201.101562 C 315.519531 194.714844 315.476562 184.269531 321.863281 177.820312 C 353.804688 145.582031 353.5625 93.355469 321.324219 61.414062 C 250.398438 -8.871094 135.5 -8.347656 65.214844 62.589844 C 31.167969 96.953125 12.535156 142.507812 12.761719 190.882812 C 12.980469 239.257812 32.023438 284.648438 66.386719 318.691406 C 101.855469 353.835938 148.308594 371.273438 194.683594 371.0625 C 241.058594 370.851562 287.347656 352.988281 322.492188 317.519531 C 337.976562 301.90625 346.441406 281.1875 346.339844 259.199219 Z M 299.109375 294.34375 C 241.609375 352.375 147.601562 352.804688 89.5625 295.304688 C 61.453125 267.449219 45.867188 230.308594 45.6875 190.730469 C 45.503906 151.152344 60.75 113.875 88.601562 85.757812 C 146.105469 27.726562 240.109375 27.292969 298.148438 84.796875 C 317.496094 103.96875 317.640625 135.304688 298.46875 154.644531 C 279.304688 173.980469 279.445312 205.316406 298.785156 224.488281 C 308.15625 233.777344 313.347656 246.160156 313.410156 259.351562 C 313.476562 272.542969 308.398438 284.972656 299.109375 294.34375 " fill-opacity="1" fill-rule="nonzero"/></g><path fill="#8c52ff" d="M 191.464844 216.800781 C 190.589844 216.800781 189.714844 216.757812 188.84375 216.671875 C 187.972656 216.585938 187.105469 216.457031 186.246094 216.285156 C 185.386719 216.113281 184.539062 215.902344 183.699219 215.648438 C 182.863281 215.394531 182.039062 215.097656 181.230469 214.761719 C 180.417969 214.429688 179.628906 214.054688 178.855469 213.640625 C 178.082031 213.226562 177.332031 212.777344 176.605469 212.292969 C 175.875 211.804688 175.171875 211.285156 174.496094 210.726562 C 173.820312 210.171875 173.171875 209.585938 172.550781 208.964844 C 171.929688 208.34375 171.34375 207.695312 170.789062 207.019531 C 170.230469 206.34375 169.710938 205.640625 169.222656 204.910156 C 168.738281 204.183594 168.289062 203.433594 167.875 202.660156 C 167.460938 201.886719 167.085938 201.097656 166.753906 200.285156 C 166.417969 199.476562 166.121094 198.652344 165.867188 197.816406 C 165.613281 196.976562 165.402344 196.128906 165.230469 195.269531 C 165.058594 194.410156 164.929688 193.542969 164.84375 192.671875 C 164.757812 191.800781 164.714844 190.925781 164.714844 190.050781 C 164.714844 189.175781 164.757812 188.300781 164.84375 187.429688 C 164.929688 186.558594 165.058594 185.691406 165.230469 184.832031 C 165.402344 183.972656 165.613281 183.125 165.867188 182.285156 C 166.121094 181.449219 166.417969 180.625 166.753906 179.8125 C 167.085938 179.003906 167.460938 178.214844 167.875 177.441406 C 168.289062 176.667969 168.738281 175.917969 169.222656 175.191406 C 169.710938 174.460938 170.230469 173.757812 170.789062 173.082031 C 171.34375 172.402344 171.929688 171.753906 172.550781 171.136719 C 173.171875 170.515625 173.820312 169.929688 174.496094 169.375 C 175.171875 168.816406 175.875 168.296875 176.605469 167.808594 C 177.332031 167.324219 178.082031 166.875 178.855469 166.460938 C 179.628906 166.046875 180.417969 165.671875 181.230469 165.335938 C 182.039062 165.003906 182.863281 164.707031 183.699219 164.453125 C 184.539062 164.199219 185.386719 163.988281 186.246094 163.816406 C 187.105469 163.644531 187.972656 163.515625 188.84375 163.429688 C 189.714844 163.34375 190.589844 163.300781 191.464844 163.300781 C 192.339844 163.300781 193.214844 163.34375 194.085938 163.429688 C 194.957031 163.515625 195.824219 163.644531 196.683594 163.816406 C 197.542969 163.988281 198.390625 164.199219 199.230469 164.453125 C 200.066406 164.707031 200.890625 165.003906 201.703125 165.335938 C 202.511719 165.671875 203.300781 166.046875 204.074219 166.460938 C 204.847656 166.875 205.597656 167.324219 206.324219 167.808594 C 207.054688 168.296875 207.757812 168.816406 208.433594 169.375 C 209.113281 169.929688 209.761719 170.515625 210.378906 171.136719 C 211 171.753906 211.585938 172.402344 212.140625 173.082031 C 212.699219 173.757812 213.21875 174.460938 213.707031 175.191406 C 214.191406 175.917969 214.640625 176.667969 215.054688 177.441406 C 215.46875 178.214844 215.84375 179.003906 216.175781 179.8125 C 216.511719 180.625 216.808594 181.449219 217.0625 182.285156 C 217.316406 183.125 217.527344 183.972656 217.699219 184.832031 C 217.871094 185.691406 218 186.558594 218.085938 187.429688 C 218.171875 188.300781 218.214844 189.175781 218.214844 190.050781 C 218.214844 190.925781 218.171875 191.800781 218.085938 192.671875 C 218 193.542969 217.871094 194.410156 217.699219 195.269531 C 217.527344 196.128906 217.316406 196.976562 217.0625 197.816406 C 216.808594 198.652344 216.511719 199.476562 216.175781 200.285156 C 215.84375 201.097656 215.46875 201.886719 215.054688 202.660156 C 214.640625 203.433594 214.191406 204.183594 213.707031 204.910156 C 213.21875 205.640625 212.699219 206.34375 212.140625 207.019531 C 211.585938 207.695312 211 208.34375 210.378906 208.964844 C 209.761719 209.585938 209.113281 210.171875 208.433594 210.726562 C 207.757812 211.285156 207.054688 211.804688 206.324219 212.292969 C 205.597656 212.777344 204.847656 213.226562 204.074219 213.640625 C 203.300781 214.054688 202.511719 214.429688 201.703125 214.761719 C 200.890625 215.097656 200.066406 215.394531 199.230469 215.648438 C 198.390625 215.902344 197.542969 216.113281 196.683594 216.285156 C 195.824219 216.457031 194.957031 216.585938 194.085938 216.671875 C 193.214844 216.757812 192.339844 216.800781 191.464844 216.800781 Z M 191.464844 216.800781 " fill-opacity="1" fill-rule="nonzero"/></svg>