<?xml version="1.0" standalone="no"?>
<!DOCTYPE svg PUBLIC "-//W3C//DTD SVG 20010904//EN"
 "http://www.w3.org/TR/2001/REC-SVG-20010904/DTD/svg10.dtd">
<svg version="1.0" fill="" xmlns="http://www.w3.org/2000/svg"
 width="643.000000pt" height="701.000000pt" viewBox="0 0 643.000000 701.000000"
 preserveAspectRatio="xMidYMid meet" >

<g transform="translate(0.000000,701.000000) scale(0.100000,-0.100000)"
fill="#000000" stroke="none">
<path d="M3125 6809 c-135 -13 -258 -29 -305 -39 -73 -16 -222 -51 -255 -60
-146 -41 -314 -95 -322 -104 -4 -3 -12 -6 -19 -6 -25 0 -436 -197 -442 -212
-2 -4 -8 -8 -13 -8 -5 0 -37 -17 -72 -37 -34 -21 -75 -44 -90 -52 -15 -8 -27
-18 -27 -23 0 -4 -4 -8 -9 -8 -15 0 -198 -137 -326 -243 -69 -58 -325 -310
-325 -320 0 -5 -13 -21 -28 -35 -15 -15 -39 -43 -52 -62 -13 -19 -31 -42 -40
-50 -9 -8 -27 -31 -40 -50 -13 -19 -27 -37 -30 -40 -3 -3 -17 -21 -30 -40 -14
-19 -32 -44 -42 -54 -10 -11 -18 -24 -18 -29 0 -4 -13 -28 -30 -52 -16 -24
-30 -48 -30 -54 0 -6 -4 -11 -10 -11 -5 0 -10 -9 -10 -20 0 -11 -4 -20 -8 -20
-5 0 -15 -12 -23 -27 -8 -16 -26 -48 -41 -72 -16 -25 -28 -53 -28 -63 0 -10
-4 -18 -8 -18 -4 0 -22 -33 -41 -72 -18 -40 -46 -100 -62 -134 -16 -33 -29
-70 -29 -83 0 -12 -4 -19 -10 -16 -6 4 -10 -5 -10 -20 0 -14 -4 -33 -9 -43
-23 -46 -63 -162 -69 -200 -2 -18 -8 -35 -13 -38 -5 -3 -9 -21 -9 -40 0 -19
-4 -34 -10 -34 -5 0 -10 -18 -10 -39 0 -22 -4 -43 -10 -46 -5 -3 -10 -26 -10
-50 0 -24 -4 -46 -9 -49 -8 -5 -14 -44 -27 -188 -4 -37 -10 -65 -14 -63 -4 3
-8 -171 -9 -385 -1 -248 1 -390 8 -390 5 0 12 -30 14 -67 3 -38 10 -93 16
-123 6 -30 14 -79 17 -107 4 -29 10 -53 13 -53 4 0 8 -15 9 -32 2 -18 7 -46
12 -63 5 -16 19 -64 31 -105 12 -41 26 -84 30 -95 4 -11 24 -67 44 -125 20
-58 42 -115 50 -127 8 -12 15 -27 15 -33 0 -6 30 -71 66 -143 71 -142 69 -138
132 -239 23 -38 42 -70 42 -72 0 -3 24 -39 53 -82 28 -42 57 -85 63 -96 6 -10
22 -31 35 -46 13 -15 31 -38 40 -52 10 -14 38 -47 63 -74 25 -27 46 -53 46
-58 0 -11 258 -268 329 -328 30 -25 72 -62 95 -82 22 -21 44 -38 47 -38 4 0
21 -13 40 -29 18 -16 36 -28 40 -25 4 2 13 -4 20 -12 14 -18 78 -60 92 -62 4
0 23 -14 42 -31 18 -16 43 -32 54 -36 12 -3 21 -11 21 -16 0 -6 4 -8 9 -5 5 3
15 -1 22 -10 7 -8 31 -25 53 -36 23 -11 49 -27 59 -36 9 -8 17 -12 17 -9 0 4
15 -2 33 -13 31 -19 48 -27 192 -95 89 -42 176 -75 196 -75 8 0 19 -4 25 -10
5 -5 19 -11 31 -13 13 -2 26 -6 29 -10 4 -4 15 -7 24 -7 9 0 35 -9 58 -20 24
-12 48 -20 55 -19 7 1 19 -1 27 -4 41 -17 205 -54 205 -46 0 1 10 -3 23 -10
12 -7 55 -16 95 -22 40 -5 97 -14 127 -20 93 -19 703 -22 850 -5 147 18 226
30 295 46 28 6 68 15 90 19 58 11 303 86 360 110 11 5 47 19 80 31 33 12 73
28 90 34 25 10 209 101 347 173 25 13 52 31 58 38 7 8 17 15 22 15 6 0 30 14
55 30 24 17 48 30 54 30 5 0 9 4 9 8 0 4 21 21 47 38 25 16 51 34 57 39 6 6
27 22 46 35 37 26 57 42 94 75 13 11 45 38 72 60 26 22 69 59 94 82 25 24 48
43 53 43 4 0 7 9 7 20 0 11 4 20 10 20 10 0 110 95 110 105 0 3 15 21 34 41
19 20 42 51 52 70 10 19 22 34 26 34 5 0 8 7 8 15 0 8 4 15 8 15 10 0 82 144
121 242 35 88 76 252 91 368 10 72 10 213 0 415 -2 35 -45 204 -64 255 -53
136 -75 184 -115 255 -25 44 -51 86 -57 93 -7 6 -16 21 -19 32 -3 11 -10 20
-15 20 -5 0 -11 8 -14 18 -3 9 -32 45 -64 80 -121 132 -152 175 -152 213 0 10
-4 20 -9 23 -19 12 -20 95 -2 154 22 69 53 117 116 178 25 25 42 50 39 56 -4
7 -2 8 4 4 7 -4 12 -3 12 3 0 5 23 36 50 69 28 33 50 65 50 71 0 6 4 11 8 11
10 0 103 185 132 264 110 293 129 610 56 927 -18 77 -91 254 -143 348 -81 146
-182 275 -297 380 -21 20 -61 57 -88 83 -27 27 -66 60 -86 75 -20 16 -43 34
-50 41 -8 7 -30 25 -50 40 -21 15 -39 29 -42 33 -3 3 -34 25 -70 49 -36 24
-67 46 -70 49 -8 10 -64 42 -82 48 -10 3 -18 9 -18 14 0 5 -6 9 -13 9 -7 0
-23 9 -35 20 -12 11 -26 20 -32 20 -10 0 -50 20 -60 30 -13 13 -149 83 -225
115 -22 9 -57 25 -78 36 -22 10 -43 19 -48 19 -6 0 -29 9 -51 20 -23 11 -50
20 -60 20 -10 0 -18 5 -18 10 0 6 -8 10 -17 10 -17 0 -33 5 -139 40 -33 11
-70 20 -82 20 -12 0 -22 4 -22 9 0 9 -33 17 -117 27 -24 4 -43 10 -43 14 0 8
-26 12 -155 26 -33 3 -68 10 -77 15 -9 5 -53 9 -97 9 -47 0 -81 4 -81 10 0 12
-465 11 -585 -1z m335 -103 c0 -2 -8 -10 -17 -17 -16 -13 -17 -12 -4 4 13 16
21 21 21 13z m200 -487 c162 -14 202 -19 225 -29 21 -9 98 -21 152 -24 17 0
29 -4 27 -8 -2 -3 15 -9 38 -13 24 -3 52 -10 63 -14 40 -16 92 -31 108 -31 9
0 17 -4 17 -9 0 -8 41 -19 80 -22 8 -1 22 -7 30 -14 12 -10 38 -22 70 -30 3
-1 21 -9 40 -17 19 -9 38 -14 42 -12 5 3 8 1 8 -4 0 -10 53 -36 66 -32 4 1 10
-2 13 -7 3 -5 27 -20 54 -32 26 -13 47 -26 47 -29 0 -4 10 -12 23 -17 46 -22
112 -60 115 -67 2 -5 8 -8 14 -8 5 0 41 -23 78 -51 38 -28 72 -50 75 -49 3 1
27 -17 53 -40 104 -91 123 -105 133 -102 6 1 8 -1 6 -5 -3 -5 18 -28 47 -53
29 -25 68 -65 87 -90 19 -24 46 -58 62 -74 27 -29 116 -197 131 -246 21 -73
28 -101 38 -160 17 -107 9 -332 -13 -346 -5 -3 -9 -14 -9 -25 0 -27 -23 -99
-32 -99 -5 0 -8 -7 -8 -16 0 -22 -60 -144 -71 -144 -5 0 -9 -9 -9 -19 0 -11
-4 -21 -8 -23 -4 -1 -23 -23 -42 -47 -19 -25 -61 -71 -92 -104 -32 -32 -58
-65 -58 -73 0 -8 -4 -14 -8 -14 -5 0 -15 -12 -23 -27 -8 -16 -20 -34 -27 -42
-7 -7 -16 -26 -19 -42 -3 -16 -9 -29 -14 -29 -5 0 -9 -9 -9 -20 0 -11 -4 -20
-8 -20 -7 0 -18 -35 -42 -130 -10 -41 -28 -182 -28 -225 -1 -16 4 -48 10 -70
6 -22 12 -53 13 -70 4 -58 14 -88 68 -217 7 -16 15 -28 19 -28 5 0 8 -7 8 -15
0 -9 7 -18 15 -21 9 -4 15 -11 14 -18 -3 -18 17 -59 43 -86 13 -14 52 -59 88
-100 36 -41 73 -84 83 -95 10 -11 28 -38 39 -60 11 -22 29 -52 39 -67 11 -14
19 -33 19 -41 0 -9 3 -17 8 -19 11 -5 52 -129 52 -159 0 -14 3 -29 7 -33 11
-10 14 -33 17 -131 3 -106 -18 -280 -35 -291 -5 -3 -9 -16 -9 -29 0 -20 -35
-101 -50 -115 -3 -3 -12 -25 -20 -50 -8 -25 -29 -60 -47 -78 -18 -18 -33 -37
-33 -43 0 -10 -183 -196 -216 -219 -12 -8 -47 -38 -77 -67 -31 -28 -66 -54
-77 -58 -11 -3 -20 -11 -20 -16 0 -5 -6 -9 -12 -9 -7 0 -27 -14 -45 -30 -18
-17 -39 -30 -47 -30 -8 0 -16 -3 -18 -7 -1 -5 -30 -26 -63 -48 -82 -54 -95
-63 -130 -78 -16 -8 -73 -34 -125 -59 -151 -72 -177 -82 -320 -128 -74 -23
-143 -47 -152 -51 -10 -5 -33 -9 -52 -9 -19 0 -38 -4 -41 -10 -3 -5 -20 -10
-36 -10 -17 0 -38 -4 -47 -9 -19 -10 -85 -19 -223 -30 -52 -4 -100 -11 -106
-14 -6 -4 -93 -6 -194 -6 -222 1 -238 2 -232 11 3 6 -140 14 -169 9 -5 0 -8 4
-8 9 0 6 -26 10 -59 10 -33 0 -63 5 -66 10 -3 6 -26 10 -50 10 -24 0 -47 5
-50 10 -3 6 -18 10 -32 10 -31 0 -103 21 -103 29 0 4 -9 7 -21 8 -12 1 -50 11
-85 22 -35 12 -70 21 -79 21 -8 0 -15 4 -15 8 0 5 -22 15 -50 22 -27 7 -50 17
-50 22 0 4 -9 8 -20 8 -11 0 -20 5 -20 10 0 6 -6 10 -14 10 -8 0 -40 14 -71
30 -31 17 -62 30 -69 30 -6 0 -22 9 -36 20 -14 11 -32 20 -41 20 -8 0 -25 9
-37 20 -12 11 -28 20 -36 20 -9 0 -21 9 -28 20 -7 11 -21 20 -30 20 -10 0 -18
4 -18 9 0 5 -15 16 -34 25 -18 8 -39 22 -46 31 -7 8 -19 15 -26 15 -8 0 -14 4
-14 8 0 4 -13 16 -30 25 -16 10 -51 38 -77 62 -27 25 -52 45 -57 45 -12 0
-356 343 -356 355 0 6 -12 24 -28 40 -29 33 -81 100 -97 126 -5 10 -25 38 -42
64 -18 25 -33 50 -33 54 0 5 -7 14 -15 21 -16 13 -15 11 -108 195 -68 136
-107 219 -107 230 0 4 -6 21 -13 38 -30 72 -68 197 -63 206 3 5 3 11 -2 13
-13 5 -41 104 -57 202 -9 50 -22 130 -31 177 -9 47 -14 111 -13 141 2 31 1 54
-3 51 -5 -2 -8 80 -8 182 0 102 3 184 8 182 4 -3 7 34 7 81 1 101 27 272 66
422 17 68 98 310 119 355 10 22 24 55 30 73 7 17 16 32 21 32 5 0 9 8 9 17 0
18 84 180 135 258 17 28 53 84 80 125 27 41 51 77 54 80 10 8 54 63 76 95 45
64 336 365 353 365 4 0 21 12 37 28 70 63 295 218 399 274 152 82 413 198 446
198 6 0 18 4 28 10 50 27 343 97 447 106 33 3 67 8 75 12 23 10 348 30 415 25
33 -2 112 -8 175 -14z m-2526 -444 c-4 -8 -10 -12 -15 -9 -11 6 -2 24 11 24 5
0 7 -7 4 -15z m4207 -18 c-6 -8 -7 -18 -3 -23 4 -4 -1 -2 -11 6 -18 14 -18 14
0 21 26 11 27 10 14 -4z m-4361 -132 c-7 -9 -15 -13 -19 -10 -3 3 1 10 9 15
21 14 24 12 10 -5z m3654 -4761 c3 -8 2 -12 -4 -9 -6 3 -10 10 -10 16 0 14 7
11 14 -7z m-2317 -490 c-3 -3 -12 -4 -19 -1 -8 3 -5 6 6 6 11 1 17 -2 13 -5z
m1414 -11 c13 -16 12 -17 -3 -4 -17 13 -22 21 -14 21 2 0 10 -8 17 -17z"/>
<path d="M3170 5288 c-69 -10 -85 -13 -220 -49 -102 -28 -297 -96 -310 -109
-3 -3 -43 -25 -90 -49 -47 -24 -87 -46 -90 -50 -3 -4 -27 -21 -55 -39 -106
-68 -129 -88 -292 -250 -62 -63 -113 -118 -113 -124 0 -6 -8 -18 -18 -27 -10
-9 -29 -32 -42 -51 -13 -19 -30 -41 -38 -49 -7 -7 -21 -31 -30 -52 -9 -22 -20
-39 -24 -39 -5 0 -8 -9 -8 -19 0 -11 -3 -21 -8 -23 -13 -5 -82 -145 -75 -152
3 -3 1 -6 -5 -6 -7 0 -12 -9 -12 -20 0 -11 -4 -20 -10 -20 -5 0 -10 -16 -10
-36 0 -21 -4 -33 -10 -29 -6 4 -10 -6 -10 -24 0 -16 -4 -33 -10 -36 -5 -3 -10
-19 -10 -34 0 -15 -3 -31 -7 -35 -13 -13 -45 -177 -50 -253 -3 -40 -9 -73 -14
-73 -5 0 -9 -8 -9 -17 0 -16 2 -16 11 -3 7 11 8 6 4 -20 -9 -53 -11 -240 -2
-240 4 0 7 -33 7 -74 0 -41 5 -78 10 -81 6 -3 10 -26 10 -50 0 -24 4 -46 9
-49 5 -3 11 -20 14 -38 18 -106 58 -221 131 -368 28 -58 54 -109 59 -115 4 -5
25 -37 46 -70 21 -33 48 -70 60 -82 11 -12 21 -26 21 -30 0 -4 10 -20 23 -35
12 -15 39 -47 60 -72 22 -26 44 -43 49 -39 6 3 8 2 5 -4 -8 -13 68 -85 79 -75
4 4 4 2 1 -4 -6 -11 15 -33 90 -91 15 -13 33 -23 39 -23 6 0 18 -7 25 -16 14
-17 89 -68 101 -69 3 0 20 -12 37 -27 17 -16 41 -28 53 -28 12 0 18 -3 14 -7
-3 -4 17 -17 45 -30 28 -13 54 -22 56 -19 3 2 13 -2 22 -11 21 -17 125 -63
161 -70 14 -2 34 -8 45 -13 11 -4 39 -13 63 -19 23 -6 60 -16 81 -22 21 -6 53
-10 70 -7 31 5 42 -5 19 -16 -7 -3 -4 -5 7 -5 64 3 167 -4 141 -10 -16 -3 47
-6 140 -7 93 -1 160 2 149 7 -18 7 79 15 143 11 12 0 20 3 17 9 -4 5 5 9 19 9
81 0 365 91 466 149 25 14 66 35 92 47 43 21 189 114 214 138 7 6 31 27 55 46
23 19 65 56 92 83 26 26 52 47 56 47 5 0 21 24 36 53 21 40 28 71 32 134 4 57
2 83 -5 83 -6 0 -9 6 -6 14 5 14 -16 64 -40 93 -67 83 -126 111 -236 112 -91
1 -136 -17 -202 -81 -26 -25 -64 -59 -85 -74 -21 -16 -40 -31 -43 -34 -24 -25
-92 -70 -104 -70 -9 0 -16 -4 -16 -8 0 -26 -272 -132 -393 -153 -89 -16 -352
-23 -388 -10 -23 8 -29 7 -29 -4 0 -8 -4 -17 -10 -20 -5 -3 -7 0 -5 7 4 9 -13
19 -53 31 -32 9 -65 17 -73 17 -23 0 -122 39 -129 51 -4 6 -10 10 -14 10 -23
-3 -36 0 -31 9 3 6 -1 10 -10 10 -21 0 -175 81 -175 92 0 4 -5 8 -11 8 -20 0
-239 197 -239 215 0 4 -13 20 -30 38 -16 18 -30 35 -30 39 0 4 -6 13 -13 20
-26 27 -146 267 -147 294 0 11 -3 24 -7 28 -8 8 -7 5 -27 113 -9 46 -13 89
-10 98 4 8 1 15 -5 15 -8 0 -11 45 -10 143 0 93 4 135 9 122 7 -14 8 -9 3 19
-10 66 43 256 108 386 36 74 101 177 143 229 27 34 144 150 176 176 88 70 115
88 205 133 139 70 182 87 245 102 30 6 71 16 90 21 83 20 235 30 300 20 36 -6
88 -11 115 -11 28 0 75 -9 105 -20 30 -11 62 -19 71 -20 8 0 34 -9 57 -20 22
-11 45 -20 51 -20 13 0 104 -40 111 -48 3 -4 33 -21 67 -37 35 -17 63 -35 63
-40 0 -12 36 -40 42 -34 2 2 35 -27 73 -64 88 -86 137 -109 237 -115 67 -3 83
-1 128 22 67 34 134 105 154 164 21 59 20 142 -1 208 -12 40 -32 70 -83 121
-36 38 -84 82 -105 98 -22 17 -49 38 -59 47 -11 10 -32 23 -47 30 -15 7 -25
16 -23 20 3 4 -3 8 -13 8 -10 0 -25 9 -33 20 -8 11 -22 20 -32 20 -10 0 -18 4
-18 8 0 11 -202 112 -223 112 -10 0 -17 5 -17 10 0 6 -9 10 -20 10 -11 0 -20
5 -20 10 0 6 -13 10 -30 10 -16 0 -30 5 -30 10 0 6 -13 10 -30 10 -16 0 -30 5
-30 12 0 6 -3 9 -6 6 -3 -4 -20 -2 -37 4 -31 10 -67 17 -192 40 -78 14 -452
18 -535 6z m75 -215 c-2 -10 -4 -19 -4 -21 -1 -2 -6 0 -11 3 -8 5 -7 11 1 21
15 18 18 18 14 -3z m-1045 -373 c8 -5 12 -11 10 -14 -3 -2 -14 2 -24 10 -22
15 -10 19 14 4z"/>
<path d="M3250 3991 c-8 -5 -42 -19 -75 -31 -33 -13 -80 -37 -105 -54 -51 -34
-130 -115 -130 -133 0 -7 -3 -13 -7 -13 -21 0 -73 -144 -73 -200 0 -33 -3 -41
-10 -30 -7 11 -10 0 -10 -37 0 -29 5 -53 10 -53 6 0 10 -25 10 -55 0 -30 5
-55 10 -55 6 0 10 -13 10 -30 0 -16 4 -30 8 -30 5 0 14 -16 22 -35 8 -19 17
-35 22 -35 4 0 8 -6 8 -13 0 -8 26 -40 57 -71 60 -60 171 -122 239 -133 19 -3
31 -9 25 -12 -6 -4 44 -7 111 -8 73 -1 115 3 107 8 -9 6 0 9 27 9 25 0 47 6
54 15 7 8 18 15 25 15 21 0 116 70 167 122 59 60 117 179 125 254 4 35 9 51
14 42 5 -8 9 13 9 52 0 39 -4 60 -9 52 -5 -9 -10 6 -14 40 -6 63 -40 157 -67
188 -11 13 -20 26 -20 29 0 13 -109 119 -129 126 -11 3 -21 11 -21 16 0 5 -7
9 -15 9 -8 0 -30 9 -50 20 -20 11 -49 20 -66 20 -18 0 -28 4 -24 10 8 12 -213
13 -235 1z"/>
<path d="M84 3490 c0 -63 1 -89 3 -57 2 31 2 83 0 115 -2 31 -3 5 -3 -58z"/>
<path d="M3342 163 c48 -2 129 -2 180 0 51 1 12 3 -87 3 -99 0 -141 -2 -93 -3z"/>
</g>
</svg>
